<mxfile host="app.diagrams.net" modified="2024-01-06T10:05:47.297Z" agent="Mozilla/5.0 (Windows NT 10.0; Win64; x64) AppleWebKit/537.36 (KHTML, like Gecko) Chrome/120.0.0.0 Safari/537.36" etag="O9jn6NmpBjdawcTA8OJk" version="22.1.17" type="github">
  <diagram name="Page-1" id="2YBvvXClWsGukQMizWep">
    <mxGraphModel dx="637" dy="276" grid="1" gridSize="10" guides="1" tooltips="1" connect="1" arrows="1" fold="1" page="1" pageScale="1" pageWidth="850" pageHeight="1100" math="0" shadow="0">
      <root>
        <mxCell id="0" />
        <mxCell id="1" parent="0" />
        <mxCell id="tvcnEHbiSmPLYnLv3Dl3-1" value="UserController" style="shape=umlLifeline;perimeter=lifelinePerimeter;whiteSpace=wrap;html=1;container=0;dropTarget=0;collapsible=0;recursiveResize=0;outlineConnect=0;portConstraint=eastwest;newEdgeStyle={&quot;edgeStyle&quot;:&quot;elbowEdgeStyle&quot;,&quot;elbow&quot;:&quot;vertical&quot;,&quot;curved&quot;:0,&quot;rounded&quot;:0};" parent="1" vertex="1">
          <mxGeometry x="57.4" y="40" width="100" height="774" as="geometry" />
        </mxCell>
        <mxCell id="tvcnEHbiSmPLYnLv3Dl3-3" value="UpdateUser&lt;br&gt;CommandHandler" style="shape=umlLifeline;perimeter=lifelinePerimeter;whiteSpace=wrap;html=1;container=0;dropTarget=0;collapsible=0;recursiveResize=0;outlineConnect=0;portConstraint=eastwest;newEdgeStyle={&quot;edgeStyle&quot;:&quot;elbowEdgeStyle&quot;,&quot;elbow&quot;:&quot;vertical&quot;,&quot;curved&quot;:0,&quot;rounded&quot;:0};" parent="1" vertex="1">
          <mxGeometry x="237.4" y="40" width="160" height="774" as="geometry" />
        </mxCell>
        <mxCell id="tvcnEHbiSmPLYnLv3Dl3-4" value="" style="html=1;points=[];perimeter=orthogonalPerimeter;outlineConnect=0;targetShapes=umlLifeline;portConstraint=eastwest;newEdgeStyle={&quot;edgeStyle&quot;:&quot;elbowEdgeStyle&quot;,&quot;elbow&quot;:&quot;vertical&quot;,&quot;curved&quot;:0,&quot;rounded&quot;:0};" parent="tvcnEHbiSmPLYnLv3Dl3-3" vertex="1">
          <mxGeometry x="75" y="80" width="10" height="630" as="geometry" />
        </mxCell>
        <mxCell id="tvcnEHbiSmPLYnLv3Dl3-5" value="new UpdateUserCommand(Id, UserDto)" style="html=1;verticalAlign=bottom;endArrow=block;edgeStyle=elbowEdgeStyle;elbow=horizontal;curved=0;rounded=0;" parent="1" source="tvcnEHbiSmPLYnLv3Dl3-8" target="tvcnEHbiSmPLYnLv3Dl3-4" edge="1">
          <mxGeometry relative="1" as="geometry">
            <mxPoint x="112.4" y="134" as="sourcePoint" />
            <Array as="points">
              <mxPoint x="197.4" y="134" />
            </Array>
            <mxPoint x="307.4" y="134" as="targetPoint" />
            <mxPoint as="offset" />
          </mxGeometry>
        </mxCell>
        <mxCell id="tvcnEHbiSmPLYnLv3Dl3-8" value="" style="rounded=0;whiteSpace=wrap;html=1;" parent="1" vertex="1">
          <mxGeometry x="102.4" y="114" width="10" height="680" as="geometry" />
        </mxCell>
        <mxCell id="tvcnEHbiSmPLYnLv3Dl3-11" value="" style="html=1;verticalAlign=bottom;endArrow=block;edgeStyle=elbowEdgeStyle;elbow=vertical;curved=0;rounded=0;" parent="1" target="tvcnEHbiSmPLYnLv3Dl3-8" edge="1">
          <mxGeometry relative="1" as="geometry">
            <mxPoint x="112.4" y="134" as="sourcePoint" />
            <Array as="points" />
            <mxPoint x="312.4" y="134" as="targetPoint" />
          </mxGeometry>
        </mxCell>
        <mxCell id="tvcnEHbiSmPLYnLv3Dl3-15" value="&lt;font style=&quot;font-size: 11px;&quot;&gt;condition&lt;/font&gt;" style="shape=umlFrame;whiteSpace=wrap;html=1;pointerEvents=0;direction=east;" parent="1" vertex="1">
          <mxGeometry x="77.4" y="504" width="340" height="270" as="geometry" />
        </mxCell>
        <mxCell id="tvcnEHbiSmPLYnLv3Dl3-16" value="[ Result.IsFailed ]" style="text;html=1;align=center;verticalAlign=middle;resizable=0;points=[];autosize=1;strokeColor=none;fillColor=default;fontSize=10;" parent="1" vertex="1">
          <mxGeometry x="267.4" y="534" width="100" height="30" as="geometry" />
        </mxCell>
        <mxCell id="tvcnEHbiSmPLYnLv3Dl3-17" value="" style="html=1;verticalAlign=bottom;endArrow=open;dashed=1;endSize=8;edgeStyle=elbowEdgeStyle;elbow=vertical;curved=0;rounded=0;strokeColor=default;" parent="1" source="tvcnEHbiSmPLYnLv3Dl3-4" edge="1">
          <mxGeometry x="0.0051" relative="1" as="geometry">
            <mxPoint x="113.4" y="571" as="targetPoint" />
            <Array as="points" />
            <mxPoint x="311.4" y="572.0031034482759" as="sourcePoint" />
            <mxPoint as="offset" />
          </mxGeometry>
        </mxCell>
        <mxCell id="tvcnEHbiSmPLYnLv3Dl3-18" value="[else]" style="text;html=1;align=center;verticalAlign=middle;resizable=0;points=[];autosize=1;strokeColor=none;fillColor=default;fontSize=10;imageWidth=24;arcSize=12;strokeOpacity=100;resizeHeight=0;" parent="1" vertex="1">
          <mxGeometry x="292.4" y="624" width="50" height="30" as="geometry" />
        </mxCell>
        <mxCell id="tvcnEHbiSmPLYnLv3Dl3-20" value="UnitOfWork" style="shape=umlLifeline;perimeter=lifelinePerimeter;whiteSpace=wrap;html=1;container=0;dropTarget=0;collapsible=0;recursiveResize=0;outlineConnect=0;portConstraint=eastwest;newEdgeStyle={&quot;edgeStyle&quot;:&quot;elbowEdgeStyle&quot;,&quot;elbow&quot;:&quot;vertical&quot;,&quot;curved&quot;:0,&quot;rounded&quot;:0};" parent="1" vertex="1">
          <mxGeometry x="727.4" y="40" width="121" height="774" as="geometry" />
        </mxCell>
        <mxCell id="tvcnEHbiSmPLYnLv3Dl3-21" value="" style="html=1;points=[];perimeter=orthogonalPerimeter;outlineConnect=0;targetShapes=umlLifeline;portConstraint=eastwest;newEdgeStyle={&quot;edgeStyle&quot;:&quot;elbowEdgeStyle&quot;,&quot;elbow&quot;:&quot;vertical&quot;,&quot;curved&quot;:0,&quot;rounded&quot;:0};" parent="tvcnEHbiSmPLYnLv3Dl3-20" vertex="1">
          <mxGeometry x="55.5" y="665" width="10" height="20" as="geometry" />
        </mxCell>
        <mxCell id="tvcnEHbiSmPLYnLv3Dl3-22" value="" style="endArrow=none;dashed=1;html=1;rounded=0;" parent="1" edge="1">
          <mxGeometry width="50" height="50" relative="1" as="geometry">
            <mxPoint x="47.4" y="608.52" as="sourcePoint" />
            <mxPoint x="350.4" y="608.52" as="targetPoint" />
          </mxGeometry>
        </mxCell>
        <mxCell id="tvcnEHbiSmPLYnLv3Dl3-23" value="" style="endArrow=classic;html=1;rounded=0;" parent="1" edge="1">
          <mxGeometry width="50" height="50" relative="1" as="geometry">
            <mxPoint x="323.14999999999986" y="717" as="sourcePoint" />
            <mxPoint x="781.4" y="717" as="targetPoint" />
          </mxGeometry>
        </mxCell>
        <mxCell id="tvcnEHbiSmPLYnLv3Dl3-24" value="SaveChange()" style="text;html=1;align=center;verticalAlign=middle;resizable=0;points=[];autosize=1;strokeColor=none;fillColor=none;" parent="1" vertex="1">
          <mxGeometry x="320.4" y="694" width="100" height="30" as="geometry" />
        </mxCell>
        <mxCell id="tvcnEHbiSmPLYnLv3Dl3-25" value="" style="html=1;verticalAlign=bottom;endArrow=open;dashed=1;endSize=8;edgeStyle=elbowEdgeStyle;elbow=vertical;curved=0;rounded=0;strokeColor=default;" parent="1" edge="1">
          <mxGeometry x="0.0051" relative="1" as="geometry">
            <mxPoint x="112.4" y="741" as="targetPoint" />
            <Array as="points" />
            <mxPoint x="311.4" y="741" as="sourcePoint" />
            <mxPoint as="offset" />
          </mxGeometry>
        </mxCell>
        <mxCell id="tvcnEHbiSmPLYnLv3Dl3-26" value="&lt;font style=&quot;font-size: 9px;&quot;&gt;CustomGenericResult(&lt;br&gt;result,&lt;br style=&quot;font-size: 9px;&quot;&gt;data: user,&lt;br style=&quot;font-size: 9px;&quot;&gt;&amp;nbsp;statusCode: Created)&lt;/font&gt;" style="text;html=1;align=center;verticalAlign=middle;resizable=0;points=[];autosize=1;strokeColor=none;fillColor=default;fontSize=9;" parent="1" vertex="1">
          <mxGeometry x="161.4" y="714" width="110" height="60" as="geometry" />
        </mxCell>
        <mxCell id="tvcnEHbiSmPLYnLv3Dl3-39" value="" style="endArrow=classic;html=1;rounded=0;" parent="1" edge="1">
          <mxGeometry width="50" height="50" relative="1" as="geometry">
            <mxPoint x="323.14999999999986" y="677" as="sourcePoint" />
            <mxPoint x="632.9" y="677" as="targetPoint" />
          </mxGeometry>
        </mxCell>
        <mxCell id="tvcnEHbiSmPLYnLv3Dl3-40" value="Remove(user)" style="text;html=1;align=center;verticalAlign=middle;resizable=0;points=[];autosize=1;strokeColor=none;fillColor=none;" parent="1" vertex="1">
          <mxGeometry x="320.4" y="654" width="100" height="30" as="geometry" />
        </mxCell>
        <mxCell id="tvcnEHbiSmPLYnLv3Dl3-2" value="Put(&lt;br&gt;Id,&lt;br&gt;UserDto)" style="html=1;verticalAlign=bottom;startArrow=oval;endArrow=block;startSize=8;edgeStyle=elbowEdgeStyle;elbow=vertical;curved=0;rounded=0;entryX=-0.26;entryY=0.004;entryDx=0;entryDy=0;entryPerimeter=0;" parent="1" edge="1">
          <mxGeometry relative="1" as="geometry">
            <mxPoint x="10" y="125" as="sourcePoint" />
            <mxPoint x="102.39999999999998" y="125.39999999999998" as="targetPoint" />
          </mxGeometry>
        </mxCell>
        <mxCell id="_ilAbGYAn2PDPzG_f3_i-14" value="ValidateUser" style="shape=umlLifeline;perimeter=lifelinePerimeter;whiteSpace=wrap;html=1;container=0;dropTarget=0;collapsible=0;recursiveResize=0;outlineConnect=0;portConstraint=eastwest;newEdgeStyle={&quot;edgeStyle&quot;:&quot;elbowEdgeStyle&quot;,&quot;elbow&quot;:&quot;vertical&quot;,&quot;curved&quot;:0,&quot;rounded&quot;:0};" vertex="1" parent="1">
          <mxGeometry x="430" y="40" width="121" height="920" as="geometry" />
        </mxCell>
        <mxCell id="_ilAbGYAn2PDPzG_f3_i-15" value="" style="html=1;points=[];perimeter=orthogonalPerimeter;outlineConnect=0;targetShapes=umlLifeline;portConstraint=eastwest;newEdgeStyle={&quot;edgeStyle&quot;:&quot;elbowEdgeStyle&quot;,&quot;elbow&quot;:&quot;vertical&quot;,&quot;curved&quot;:0,&quot;rounded&quot;:0};" vertex="1" parent="_ilAbGYAn2PDPzG_f3_i-14">
          <mxGeometry x="56.5" y="97" width="10" height="74" as="geometry" />
        </mxCell>
        <mxCell id="_ilAbGYAn2PDPzG_f3_i-16" value="validate(UserDto)" style="text;html=1;align=center;verticalAlign=middle;resizable=0;points=[];autosize=1;strokeColor=none;fillColor=none;" vertex="1" parent="1">
          <mxGeometry x="345.5" y="124" width="120" height="30" as="geometry" />
        </mxCell>
        <mxCell id="_ilAbGYAn2PDPzG_f3_i-17" value="" style="endArrow=classic;html=1;rounded=0;" edge="1" parent="1">
          <mxGeometry width="50" height="50" relative="1" as="geometry">
            <mxPoint x="322.4" y="148" as="sourcePoint" />
            <mxPoint x="485.5" y="148" as="targetPoint" />
          </mxGeometry>
        </mxCell>
        <mxCell id="_ilAbGYAn2PDPzG_f3_i-18" value="" style="html=1;verticalAlign=bottom;endArrow=open;dashed=1;endSize=8;edgeStyle=elbowEdgeStyle;elbow=vertical;curved=0;rounded=0;" edge="1" parent="1" target="tvcnEHbiSmPLYnLv3Dl3-4">
          <mxGeometry x="0.0051" relative="1" as="geometry">
            <mxPoint x="360" y="193" as="targetPoint" />
            <Array as="points" />
            <mxPoint x="485.5" y="193.2" as="sourcePoint" />
            <mxPoint as="offset" />
          </mxGeometry>
        </mxCell>
        <mxCell id="_ilAbGYAn2PDPzG_f3_i-19" value="Result" style="text;html=1;strokeColor=none;fillColor=none;align=center;verticalAlign=middle;whiteSpace=wrap;rounded=0;" vertex="1" parent="1">
          <mxGeometry x="370.5" y="170" width="85" height="30" as="geometry" />
        </mxCell>
        <mxCell id="_ilAbGYAn2PDPzG_f3_i-21" value="" style="html=1;verticalAlign=bottom;endArrow=open;dashed=1;endSize=8;edgeStyle=elbowEdgeStyle;elbow=vertical;curved=0;rounded=0;" edge="1" parent="1" source="tvcnEHbiSmPLYnLv3Dl3-4">
          <mxGeometry x="0.0051" relative="1" as="geometry">
            <mxPoint x="115.4" y="330.28571428571433" as="targetPoint" />
            <Array as="points" />
            <mxPoint x="288.4" y="330.00310344827585" as="sourcePoint" />
            <mxPoint as="offset" />
          </mxGeometry>
        </mxCell>
        <mxCell id="_ilAbGYAn2PDPzG_f3_i-22" value="&lt;font style=&quot;font-size: 11px;&quot;&gt;condition&lt;/font&gt;" style="shape=umlFrame;whiteSpace=wrap;html=1;pointerEvents=0;direction=east;" vertex="1" parent="1">
          <mxGeometry x="84.9" y="210" width="285.1" height="150" as="geometry" />
        </mxCell>
        <mxCell id="_ilAbGYAn2PDPzG_f3_i-23" value="[else]" style="text;html=1;align=center;verticalAlign=middle;resizable=0;points=[];autosize=1;strokeColor=none;fillColor=default;fontSize=10;imageWidth=24;arcSize=12;strokeOpacity=100;resizeHeight=0;" vertex="1" parent="1">
          <mxGeometry x="292.4" y="290" width="50" height="30" as="geometry" />
        </mxCell>
        <mxCell id="_ilAbGYAn2PDPzG_f3_i-24" value="[ Result.IsFailed ]" style="text;html=1;align=center;verticalAlign=middle;resizable=0;points=[];autosize=1;strokeColor=none;fillColor=default;fontSize=10;" vertex="1" parent="1">
          <mxGeometry x="270" y="220" width="100" height="30" as="geometry" />
        </mxCell>
        <mxCell id="_ilAbGYAn2PDPzG_f3_i-25" value="" style="html=1;verticalAlign=bottom;endArrow=open;dashed=1;endSize=8;edgeStyle=elbowEdgeStyle;elbow=vertical;curved=0;rounded=0;" edge="1" parent="1" source="tvcnEHbiSmPLYnLv3Dl3-4">
          <mxGeometry x="0.0051" relative="1" as="geometry">
            <mxPoint x="114.9" y="263" as="targetPoint" />
            <Array as="points" />
            <mxPoint x="290.9" y="263" as="sourcePoint" />
            <mxPoint as="offset" />
          </mxGeometry>
        </mxCell>
        <mxCell id="_ilAbGYAn2PDPzG_f3_i-26" value="Result.Fail" style="text;html=1;align=center;verticalAlign=middle;resizable=0;points=[];autosize=1;strokeColor=none;fillColor=default;fontSize=9;imageWidth=18;imageHeight=24;arcSize=5;fillStyle=auto;" vertex="1" parent="1">
          <mxGeometry x="179.9" y="250" width="70" height="20" as="geometry" />
        </mxCell>
        <mxCell id="tvcnEHbiSmPLYnLv3Dl3-19" value="&lt;font style=&quot;font-size: 9px;&quot;&gt;CustomGenericResult(&lt;br&gt;result,&lt;br style=&quot;font-size: 9px;&quot;&gt;data: null,&lt;br style=&quot;font-size: 9px;&quot;&gt;&amp;nbsp;statusCode: BadRequest)&lt;/font&gt;" style="text;html=1;align=center;verticalAlign=middle;resizable=0;points=[];autosize=1;strokeColor=none;fillColor=default;fontSize=9;" parent="1" vertex="1">
          <mxGeometry x="157.4" y="297" width="130" height="60" as="geometry" />
        </mxCell>
      </root>
    </mxGraphModel>
  </diagram>
</mxfile>
